<svg xmlns="http://www.w3.org/2000/svg" xmlns:xlink="http://www.w3.org/1999/xlink" xmlns:lucid="lucid" width="865.2" height="984.88"><g transform="translate(-137.4803149606299 -42.99212598425197)" lucid:page-tab-id="0_0"><path d="M0 0h1096.65v1017.35H0z" fill="#fff"/><path d="M340.16 63h642.52v944.87H340.16z" stroke="#99d5ca" stroke-width="6" fill="#e5e5e5"/><use xlink:href="#a" transform="matrix(1,0,0,1,345.1574803149606,67.99212598425197) translate(263.69140625 12.796875)"/><path d="M440.94 251.97H881.9v63H440.93z" stroke="#5e5e5e" stroke-width="4" fill="#ef8d22"/><use xlink:href="#b" transform="matrix(1,0,0,1,445.94488188976374,256.9685039370079) translate(87.76666666666664 29.3625)"/><use xlink:href="#c" transform="matrix(1,0,0,1,445.94488188976374,256.9685039370079) translate(297.1 29.3625)"/><path d="M440.94 692.9H881.9v63H440.93z" stroke="#5e5e5e" stroke-width="4" fill="#ef8d22"/><use xlink:href="#d" transform="matrix(1,0,0,1,445.9448818896428,697.9133858267716) translate(75.8111111111111 29.3625)"/><use xlink:href="#e" transform="matrix(1,0,0,1,445.9448818896428,697.9133858267716) translate(217.72222222222223 29.3625)"/><path d="M755.9 377.95h126v251.97h-126z" stroke="#5e5e5e" stroke-width="4" fill="#19967d"/><use xlink:href="#f" transform="matrix(1,0,0,1,760.9055118110234,382.9527559055117) translate(10.93333333333333 111.1125)"/><use xlink:href="#g" transform="matrix(1,0,0,1,760.9055118110234,382.9527559055117) translate(3.866666666666667 130.3125)"/><path d="M157.48 818.9h125.98v188.97H157.48z" stroke="#c92d39" stroke-opacity="0" stroke-width="4" fill="#834187"/><use xlink:href="#h" transform="matrix(1,0,0,1,162.4803149606299,823.8976377893989) translate(11.422222222222224 91.1125)"/><use xlink:href="#i" transform="matrix(1,0,0,1,162.4803149606299,823.8976377893989) translate(70 91.1125)"/><path d="M157.48 409.45h125.98v188.98H157.48z" stroke="#c92d39" stroke-opacity="0" stroke-width="4" fill="#834187"/><use xlink:href="#j" transform="matrix(1,0,0,1,162.4803149606299,414.4488188976377) translate(17.22222222222222 85.51875)"/><use xlink:href="#i" transform="matrix(1,0,0,1,162.4803149606299,414.4488188976377) translate(40.71111111111111 104.71875)"/><path d="M440.94 377.95H692.9v63H440.95z" stroke="#5e5e5e" stroke-width="4" fill="#5abaa7"/><use xlink:href="#k" transform="matrix(1,0,0,1,445.94488188970325,382.9527559055117) translate(16.200000000000003 29.3625)"/><use xlink:href="#l" transform="matrix(1,0,0,1,445.94488188970325,382.9527559055117) translate(114.77777777777779 29.3625)"/><path d="M440.94 566.93H692.9v63H440.95z" stroke="#5e5e5e" stroke-width="4" fill="#5abaa7"/><use xlink:href="#f" transform="matrix(1,0,0,1,445.94488188964266,571.9291338582676) translate(73.93333333333334 19.425)"/><use xlink:href="#m" transform="matrix(1,0,0,1,445.94488188964266,571.9291338582676) translate(22.88888888888887 38.625)"/><path d="M440.94 472.44H692.9v63H440.95z" stroke="#5e5e5e" stroke-width="4" fill="#5abaa7"/><use xlink:href="#n" transform="matrix(1,0,0,1,445.94488188967324,477.44094488188955) translate(10.711111111111109 19.425)"/><use xlink:href="#o" transform="matrix(1,0,0,1,445.94488188967324,477.44094488188955) translate(34.44444444444444 38.625)"/><path d="M696.9 409.45h34.27" stroke="#5e5e5e" stroke-width="4" fill="none"/><path d="M696.96 411.45h-2.05v-4h2.06z" fill="#5e5e5e"/><path d="M747.43 409.45l-14.26 4.63v-9.27z" stroke="#5e5e5e" stroke-width="4" fill="#5e5e5e"/><path d="M696.9 598.43h34.27" stroke="#5e5e5e" stroke-width="4" fill="none"/><path d="M696.96 600.43h-2.05v-4h2.06z" fill="#5e5e5e"/><path d="M747.43 598.43l-14.26 4.63v-9.27z" stroke="#5e5e5e" stroke-width="4" fill="#5e5e5e"/><path d="M696.9 503.94H731.18" stroke="#5e5e5e" stroke-width="4" fill="none"/><path d="M696.96 505.94h-2.05v-4h2.06z" fill="#5e5e5e"/><path d="M747.43 503.94l-14.26 4.63v-9.27z" stroke="#5e5e5e" stroke-width="4" fill="#5e5e5e"/><path d="M440.94 125.98H881.9v63H440.93z" stroke="#5e5e5e" stroke-width="4" fill="#19967d"/><use xlink:href="#p" transform="matrix(1,0,0,1,445.94488188976374,130.984251968504) translate(63.877777777777766 19.425)"/><use xlink:href="#q" transform="matrix(1,0,0,1,445.94488188976374,130.984251968504) translate(110.85555555555555 19.425)"/><use xlink:href="#r" transform="matrix(1,0,0,1,445.94488188976374,130.984251968504) translate(141.43333333333334 38.625)"/><path d="M885.9 503.94h52.98c3.32 0 6-2.7 6-6V145.88c0-3.3-2.68-6-6-6h-32.25" stroke="#5e5e5e" stroke-width="4" fill="none"/><path d="M885.94 505.94h-2.05v-4h2.04z" fill="#5e5e5e"/><path d="M890.36 139.88l14.27-4.63v9.27z" stroke="#5e5e5e" stroke-width="4" fill="#5e5e5e"/><path d="M885.9 283.46h32c3.3 0 6-2.68 6-6V163.33c0-3.3-2.7-6-6-6h-11.27" stroke="#5e5e5e" stroke-width="4" fill="none"/><path d="M885.94 285.46h-2.05v-4h2.04z" fill="#5e5e5e"/><path d="M890.36 157.33l14.27-4.63v9.27z" stroke="#5e5e5e" stroke-width="4" fill="#5e5e5e"/><path d="M440.94 818.9H881.9v125.98H440.93z" stroke="#5e5e5e" stroke-width="4" fill="#5abaa7"/><use xlink:href="#s" transform="matrix(1,0,0,1,445.94488188964266,823.8976377952755) translate(53.67777777777775 59.925)"/><use xlink:href="#t" transform="matrix(1,0,0,1,445.94488188964266,823.8976377952755) translate(218.03333333333336 59.925)"/><use xlink:href="#u" transform="matrix(1,0,0,1,445.94488188964266,823.8976377952755) translate(265.4555555555556 59.925)"/><path d="M286.46 913.4h125.5" stroke="#834187" stroke-width="6" fill="none"/><path d="M286.54 916.4h-3.08v-6h3.08z" fill="#834187"/><path d="M429.24 913.4L414.97 918v-9.27z" stroke="#834187" stroke-width="6" fill="#834187"/><path d="M416.2 598.43h-32.25c-3.3 0-6 2.68-6 6v240.24c0 3.3 2.7 6 6 6h53" stroke="#5e5e5e" stroke-width="4" fill="none"/><path d="M432.47 598.43l-14.26 4.63v-9.27z" stroke="#5e5e5e" stroke-width="4" fill="#5e5e5e"/><path d="M438.94 852.67h-2.05v-4h2.04z" fill="#5e5e5e"/><path d="M436.94 724.4h-34.1c-3.3 0-6-2.68-6-6v-95.7c0-3.32 2.7-6 6-6h13.37" stroke="#5e5e5e" stroke-width="4" fill="none"/><path d="M438.94 726.4h-2.05v-4h2.04z" fill="#5e5e5e"/><path d="M432.47 616.7l-14.26 4.63v-9.27z" stroke="#5e5e5e" stroke-width="4" fill="#5e5e5e"/><path d="M286.46 503.94H411.97" stroke="#834187" stroke-width="6" fill="none"/><path d="M286.54 506.94h-3.08v-6h3.08z" fill="#834187"/><path d="M429.24 503.94l-14.27 4.63v-9.27z" stroke="#834187" stroke-width="6" fill="#834187"/><path d="M157.48 63h125.98v188.97H157.48z" stroke="#c92d39" stroke-opacity="0" stroke-width="4" fill="#085883"/><g><use xlink:href="#v" transform="matrix(1,0,0,1,162.4803149606299,67.992125984252) translate(14.577777777777776 91.1125)"/></g><path d="M435.94 157.48h-125.5" stroke="#085883" stroke-width="6" fill="none"/><path d="M438.94 160.48h-3.07v-6h3.07z" fill="#085883"/><path d="M293.17 157.48l14.27-4.63v9.27z" stroke="#085883" stroke-width="6" fill="#085883"/><path d="M220.47 254.97V382.48" stroke="#085883" stroke-width="6" fill="none"/><path d="M223.47 255.05h-6v-3.08h6z" fill="#085883"/><path d="M220.47 399.74l-4.63-14.27h9.27z" stroke="#085883" stroke-width="6" fill="#085883"/><defs><path d="M137 0v-1349h968v228H432v324h612v228H432v341h714V0H137" id="w"/><path d="M934-1102c199 0 220 177 220 381V0H926c-2-260 10-533-4-785-4-72-14-138-83-138-34 0-61 27-81 81s-29 134-29 241V0H501c-2-260 9-533-5-785-4-72-13-138-82-138-46 0-65 47-80 93-21 67-30 155-30 248V0H75c-3-360 6-732-6-1082h209c6 50 3 123 8 175 36-100 83-195 216-195 135 0 166 79 196 196 42-105 93-196 236-196" id="x"/><path d="M616-1102c361 0 521 202 521 560 0 354-171 562-527 562C259 20 92-192 92-542c0-351 169-560 524-560zm-9 930c200-2 236-165 236-370 0-199-27-367-223-367-195 0-233 146-233 367 0 129 18 223 55 282s92 88 165 88" id="y"/><path d="M711 13c-250 0-386-99-385-349l2-556H161v-190h181l88-282h176v282h385v190H606v530c-10 130 45 186 174 184 91-2 176-11 255-27v186C933-1 833 13 711 13" id="z"/><path d="M794-190h353V0H118v-190h395v-702H223v-190h571v892zM513-1277v-207h281v207H513" id="A"/><path d="M768-1103c247 0 336 167 336 416V0H824v-619c-3-164-24-273-171-273-164 0-229 142-229 312V0H143c-4-359 9-736-8-1082h268c7 63 12 146 13 215h4c67-145 160-236 348-236" id="B"/><path d="M872-915c-35-112-84-223-220-223-91 0-156 41-204 116-89 137-87 550 2 688 51 79 116 122 209 122 150 0 197-126 240-244l273 52C1094-168 961 20 656 20 239 20 80-262 80-681c0-418 154-689 568-689 289 0 425 167 496 389" id="C"/><path d="M875-1102c70 0 148 7 206 17v237c-110-17-267-37-359 15-123 69-192 207-192 395V0H250c-10-367 32-789-52-1082h271c19 69 36 149 46 228h4c52-151 151-250 356-248" id="D"/><path d="M1113-274C1038-96 884 20 626 20c-352 0-526-209-526-566 0-358 185-556 530-556 358 0 496 251 499 615H395c5 180 68 319 245 319 102 0 186-45 208-129zM857-663c-6-177-128-307-315-247-94 30-141 121-145 247h460" id="E"/><g id="a"><use transform="matrix(0.0078125,0,0,0.0078125,0,0)" xlink:href="#w"/><use transform="matrix(0.0078125,0,0,0.0078125,9.6015625,0)" xlink:href="#x"/><use transform="matrix(0.0078125,0,0,0.0078125,19.203125,0)" xlink:href="#y"/><use transform="matrix(0.0078125,0,0,0.0078125,28.8046875,0)" xlink:href="#z"/><use transform="matrix(0.0078125,0,0,0.0078125,38.40625,0)" xlink:href="#A"/><use transform="matrix(0.0078125,0,0,0.0078125,48.0078125,0)" xlink:href="#y"/><use transform="matrix(0.0078125,0,0,0.0078125,57.609375,0)" xlink:href="#B"/><use transform="matrix(0.0078125,0,0,0.0078125,67.2109375,0)" xlink:href="#C"/><use transform="matrix(0.0078125,0,0,0.0078125,76.8125,0)" xlink:href="#y"/><use transform="matrix(0.0078125,0,0,0.0078125,86.4140625,0)" xlink:href="#D"/><use transform="matrix(0.0078125,0,0,0.0078125,96.015625,0)" xlink:href="#E"/></g><path d="M24 0v-248h195v40H76v63h132v40H76v65h150V0H24" id="F"/><path d="M220-157c-53 9-28 100-34 157h-49v-107c1-27-5-49-29-50C55-147 81-57 75 0H25l-1-190h47c2 12-1 28 3 38 10-53 101-56 108 0 13-22 24-43 59-42 82 1 51 116 57 194h-49v-107c-1-25-5-48-29-50" id="G"/><path d="M110-194c64 0 96 36 96 99 0 64-35 99-97 99-61 0-95-36-95-99 0-62 34-99 96-99zm-1 164c35 0 45-28 45-65 0-40-10-65-43-65-34 0-45 26-45 65 0 36 10 65 43 65" id="H"/><path d="M115-3C79 11 28 4 28-45v-112H4v-33h27l15-45h31v45h36v33H77v99c-1 23 16 31 38 25v30" id="I"/><path d="M25-224v-37h50v37H25zM25 0v-190h50V0H25" id="J"/><path d="M135-194c87-1 58 113 63 194h-50c-7-57 23-157-34-157-59 0-34 97-39 157H25l-1-190h47c2 12-1 28 3 38 12-26 28-41 61-42" id="K"/><path d="M133-34C117-15 103 5 69 4 32 3 11-16 11-54c-1-60 55-63 116-61 1-26-3-47-28-47-18 1-26 9-28 27l-52-2c7-38 36-58 82-57s74 22 75 68l1 82c-1 14 12 18 25 15v27c-30 8-71 5-69-32zm-48 3c29 0 43-24 42-57-32 0-66-3-65 30 0 17 8 27 23 27" id="L"/><path d="M25 0v-261h50V0H25" id="M"/><path d="M169-182c-1-43-94-46-97-3 18 66 151 10 154 114 3 95-165 93-204 36-6-8-10-19-12-30l50-8c3 46 112 56 116 5-17-69-150-10-154-114-4-87 153-88 188-35 5 8 8 18 10 28" id="N"/><path d="M185-48c-13 30-37 53-82 52C43 2 14-33 14-96s30-98 90-98c62 0 83 45 84 108H66c0 31 8 55 39 56 18 0 30-7 34-22zm-45-69c5-46-57-63-70-21-2 6-4 13-4 21h74" id="O"/><path d="M24-248c120-7 223 5 221 122C244-46 201 0 124 0H24v-248zM76-40c74 7 117-18 117-86 0-67-45-88-117-82v168" id="P"/><path d="M137-138c1-29-70-34-71-4 15 46 118 7 119 86 1 83-164 76-172 9l43-7c4 19 20 25 44 25 33 8 57-30 24-41C81-84 22-81 20-136c-2-80 154-74 161-7" id="Q"/><path d="M190-63c-7 42-38 67-86 67-59 0-84-38-90-98-12-110 154-137 174-36l-49 2c-2-19-15-32-35-32-30 0-35 28-38 64-6 74 65 87 74 30" id="R"/><path d="M135-150c-39-12-60 13-60 57V0H25l-1-190h47c2 13-1 29 3 40 6-28 27-53 61-41v41" id="S"/><path d="M135-194c53 0 70 44 70 98 0 56-19 98-73 100-31 1-45-17-59-34 3 33 2 69 2 105H25l-1-265h48c2 10 0 23 3 31 11-24 29-35 60-35zM114-30c33 0 39-31 40-66 0-38-9-64-40-64-56 0-55 130 0 130" id="T"/><g id="b"><use transform="matrix(0.044444444444444446,0,0,0.044444444444444446,0,0)" xlink:href="#F"/><use transform="matrix(0.044444444444444446,0,0,0.044444444444444446,10.666666666666668,0)" xlink:href="#G"/><use transform="matrix(0.044444444444444446,0,0,0.044444444444444446,24.888888888888896,0)" xlink:href="#H"/><use transform="matrix(0.044444444444444446,0,0,0.044444444444444446,34.62222222222223,0)" xlink:href="#I"/><use transform="matrix(0.044444444444444446,0,0,0.044444444444444446,39.91111111111112,0)" xlink:href="#J"/><use transform="matrix(0.044444444444444446,0,0,0.044444444444444446,44.35555555555556,0)" xlink:href="#H"/><use transform="matrix(0.044444444444444446,0,0,0.044444444444444446,54.08888888888889,0)" xlink:href="#K"/><use transform="matrix(0.044444444444444446,0,0,0.044444444444444446,63.82222222222224,0)" xlink:href="#L"/><use transform="matrix(0.044444444444444446,0,0,0.044444444444444446,72.71111111111112,0)" xlink:href="#M"/><use transform="matrix(0.044444444444444446,0,0,0.044444444444444446,77.15555555555557,0)" xlink:href="#N"/><use transform="matrix(0.044444444444444446,0,0,0.044444444444444446,87.82222222222224,0)" xlink:href="#I"/><use transform="matrix(0.044444444444444446,0,0,0.044444444444444446,93.11111111111113,0)" xlink:href="#L"/><use transform="matrix(0.044444444444444446,0,0,0.044444444444444446,102.00000000000003,0)" xlink:href="#I"/><use transform="matrix(0.044444444444444446,0,0,0.044444444444444446,107.28888888888892,0)" xlink:href="#O"/><use transform="matrix(0.044444444444444446,0,0,0.044444444444444446,116.17777777777778,0)" xlink:href="#P"/><use transform="matrix(0.044444444444444446,0,0,0.044444444444444446,127.6888888888889,0)" xlink:href="#O"/><use transform="matrix(0.044444444444444446,0,0,0.044444444444444446,136.57777777777778,0)" xlink:href="#Q"/><use transform="matrix(0.044444444444444446,0,0,0.044444444444444446,145.46666666666667,0)" xlink:href="#R"/><use transform="matrix(0.044444444444444446,0,0,0.044444444444444446,154.35555555555555,0)" xlink:href="#S"/><use transform="matrix(0.044444444444444446,0,0,0.044444444444444446,160.57777777777778,0)" xlink:href="#J"/><use transform="matrix(0.044444444444444446,0,0,0.044444444444444446,165.02222222222224,0)" xlink:href="#T"/><use transform="matrix(0.044444444444444446,0,0,0.044444444444444446,174.7555555555556,0)" xlink:href="#I"/><use transform="matrix(0.044444444444444446,0,0,0.044444444444444446,180.04444444444448,0)" xlink:href="#H"/><use transform="matrix(0.044444444444444446,0,0,0.044444444444444446,189.77777777777783,0)" xlink:href="#S"/><use transform="matrix(0.044444444444444446,0,0,0.044444444444444446,196.00000000000006,0)" xlink:href="#Q"/></g><g id="c"><use transform="matrix(0.044444444444444446,0,0,0.044444444444444446,0,0)" xlink:href="#Q"/><use transform="matrix(0.044444444444444446,0,0,0.044444444444444446,8.88888888888889,0)" xlink:href="#I"/><use transform="matrix(0.044444444444444446,0,0,0.044444444444444446,14.177777777777779,0)" xlink:href="#L"/><use transform="matrix(0.044444444444444446,0,0,0.044444444444444446,23.066666666666666,0)" xlink:href="#I"/><use transform="matrix(0.044444444444444446,0,0,0.044444444444444446,28.355555555555558,0)" xlink:href="#O"/><use transform="matrix(0.044444444444444446,0,0,0.044444444444444446,37.24444444444444,0)" xlink:href="#Q"/></g><path d="M24 0v-248h52V0H24" id="U"/><g id="d"><use transform="matrix(0.044444444444444446,0,0,0.044444444444444446,0,0)" xlink:href="#U"/><use transform="matrix(0.044444444444444446,0,0,0.044444444444444446,4.444444444444445,0)" xlink:href="#K"/><use transform="matrix(0.044444444444444446,0,0,0.044444444444444446,14.177777777777779,0)" xlink:href="#P"/><use transform="matrix(0.044444444444444446,0,0,0.044444444444444446,25.68888888888889,0)" xlink:href="#L"/><use transform="matrix(0.044444444444444446,0,0,0.044444444444444446,34.57777777777778,0)" xlink:href="#I"/><use transform="matrix(0.044444444444444446,0,0,0.044444444444444446,39.866666666666674,0)" xlink:href="#L"/><use transform="matrix(0.044444444444444446,0,0,0.044444444444444446,48.75555555555556,0)" xlink:href="#P"/><use transform="matrix(0.044444444444444446,0,0,0.044444444444444446,60.266666666666666,0)" xlink:href="#O"/><use transform="matrix(0.044444444444444446,0,0,0.044444444444444446,69.15555555555557,0)" xlink:href="#Q"/><use transform="matrix(0.044444444444444446,0,0,0.044444444444444446,78.04444444444445,0)" xlink:href="#R"/><use transform="matrix(0.044444444444444446,0,0,0.044444444444444446,86.93333333333334,0)" xlink:href="#S"/><use transform="matrix(0.044444444444444446,0,0,0.044444444444444446,93.15555555555557,0)" xlink:href="#J"/><use transform="matrix(0.044444444444444446,0,0,0.044444444444444446,97.60000000000001,0)" xlink:href="#T"/><use transform="matrix(0.044444444444444446,0,0,0.044444444444444446,107.33333333333334,0)" xlink:href="#I"/><use transform="matrix(0.044444444444444446,0,0,0.044444444444444446,112.62222222222222,0)" xlink:href="#H"/><use transform="matrix(0.044444444444444446,0,0,0.044444444444444446,122.35555555555555,0)" xlink:href="#S"/><use transform="matrix(0.044444444444444446,0,0,0.044444444444444446,128.57777777777778,0)" xlink:href="#Q"/></g><g id="e"><use transform="matrix(0.044444444444444446,0,0,0.044444444444444446,0,0)" xlink:href="#J"/><use transform="matrix(0.044444444444444446,0,0,0.044444444444444446,4.444444444444445,0)" xlink:href="#K"/><use transform="matrix(0.044444444444444446,0,0,0.044444444444444446,14.177777777777779,0)" xlink:href="#P"/><use transform="matrix(0.044444444444444446,0,0,0.044444444444444446,25.68888888888889,0)" xlink:href="#L"/><use transform="matrix(0.044444444444444446,0,0,0.044444444444444446,34.57777777777778,0)" xlink:href="#I"/><use transform="matrix(0.044444444444444446,0,0,0.044444444444444446,39.866666666666674,0)" xlink:href="#L"/><use transform="matrix(0.044444444444444446,0,0,0.044444444444444446,48.75555555555556,0)" xlink:href="#P"/><use transform="matrix(0.044444444444444446,0,0,0.044444444444444446,60.266666666666666,0)" xlink:href="#O"/><use transform="matrix(0.044444444444444446,0,0,0.044444444444444446,69.15555555555557,0)" xlink:href="#Q"/><use transform="matrix(0.044444444444444446,0,0,0.044444444444444446,78.04444444444445,0)" xlink:href="#R"/><use transform="matrix(0.044444444444444446,0,0,0.044444444444444446,86.93333333333334,0)" xlink:href="#S"/><use transform="matrix(0.044444444444444446,0,0,0.044444444444444446,93.15555555555557,0)" xlink:href="#J"/><use transform="matrix(0.044444444444444446,0,0,0.044444444444444446,97.60000000000001,0)" xlink:href="#T"/><use transform="matrix(0.044444444444444446,0,0,0.044444444444444446,107.33333333333334,0)" xlink:href="#I"/><use transform="matrix(0.044444444444444446,0,0,0.044444444444444446,112.62222222222222,0)" xlink:href="#H"/><use transform="matrix(0.044444444444444446,0,0,0.044444444444444446,122.35555555555555,0)" xlink:href="#S"/><use transform="matrix(0.044444444444444446,0,0,0.044444444444444446,128.57777777777778,0)" xlink:href="#Q"/></g><path d="M67-125c0 53 21 87 73 88 37 1 54-22 65-47l45 17C233-25 199 4 140 4 58 4 20-42 15-125 8-235 124-281 211-232c18 10 29 29 36 50l-46 12c-8-25-30-41-62-41-52 0-71 34-72 86" id="V"/><path d="M24-248c93 1 206-16 204 79-1 75-69 88-152 82V0H24v-248zm52 121c47 0 100 7 100-41 0-47-54-39-100-39v80" id="W"/><g id="f"><use transform="matrix(0.044444444444444446,0,0,0.044444444444444446,0,0)" xlink:href="#V"/><use transform="matrix(0.044444444444444446,0,0,0.044444444444444446,11.511111111111111,0)" xlink:href="#H"/><use transform="matrix(0.044444444444444446,0,0,0.044444444444444446,21.244444444444447,0)" xlink:href="#S"/><use transform="matrix(0.044444444444444446,0,0,0.044444444444444446,27.46666666666667,0)" xlink:href="#O"/><use transform="matrix(0.044444444444444446,0,0,0.044444444444444446,36.355555555555554,0)" xlink:href="#W"/><use transform="matrix(0.044444444444444446,0,0,0.044444444444444446,47.022222222222226,0)" xlink:href="#L"/><use transform="matrix(0.044444444444444446,0,0,0.044444444444444446,55.91111111111111,0)" xlink:href="#S"/><use transform="matrix(0.044444444444444446,0,0,0.044444444444444446,62.13333333333333,0)" xlink:href="#L"/><use transform="matrix(0.044444444444444446,0,0,0.044444444444444446,71.02222222222223,0)" xlink:href="#G"/><use transform="matrix(0.044444444444444446,0,0,0.044444444444444446,85.24444444444445,0)" xlink:href="#Q"/></g><path d="M-4 44V30h207v14H-4" id="X"/><g id="g"><use transform="matrix(0.044444444444444446,0,0,0.044444444444444446,0,0)" xlink:href="#X"/><use transform="matrix(0.044444444444444446,0,0,0.044444444444444446,8.88888888888889,0)" xlink:href="#T"/><use transform="matrix(0.044444444444444446,0,0,0.044444444444444446,18.622222222222224,0)" xlink:href="#L"/><use transform="matrix(0.044444444444444446,0,0,0.044444444444444446,27.511111111111113,0)" xlink:href="#S"/><use transform="matrix(0.044444444444444446,0,0,0.044444444444444446,33.733333333333334,0)" xlink:href="#L"/><use transform="matrix(0.044444444444444446,0,0,0.044444444444444446,42.62222222222222,0)" xlink:href="#G"/><use transform="matrix(0.044444444444444446,0,0,0.044444444444444446,56.844444444444434,0)" xlink:href="#Q"/><use transform="matrix(0.044444444444444446,0,0,0.044444444444444446,65.73333333333333,0)" xlink:href="#X"/><use transform="matrix(0.044444444444444446,0,0,0.044444444444444446,74.62222222222222,0)" xlink:href="#I"/><use transform="matrix(0.044444444444444446,0,0,0.044444444444444446,79.91111111111111,0)" xlink:href="#H"/><use transform="matrix(0.044444444444444446,0,0,0.044444444444444446,89.64444444444445,0)" xlink:href="#I"/><use transform="matrix(0.044444444444444446,0,0,0.044444444444444446,94.93333333333334,0)" xlink:href="#L"/><use transform="matrix(0.044444444444444446,0,0,0.044444444444444446,103.82222222222222,0)" xlink:href="#M"/></g><path fill="#fff" d="M169-182c-1-43-94-46-97-3 18 66 151 10 154 114 3 95-165 93-204 36-6-8-10-19-12-30l50-8c3 46 112 56 116 5-17-69-150-10-154-114-4-87 153-88 188-35 5 8 8 18 10 28" id="Y"/><path fill="#fff" d="M185-48c-13 30-37 53-82 52C43 2 14-33 14-96s30-98 90-98c62 0 83 45 84 108H66c0 31 8 55 39 56 18 0 30-7 34-22zm-45-69c5-46-57-63-70-21-2 6-4 13-4 21h74" id="Z"/><path fill="#fff" d="M135-194c87-1 58 113 63 194h-50c-7-57 23-157-34-157-59 0-34 97-39 157H25l-1-190h47c2 12-1 28 3 38 12-26 28-41 61-42" id="aa"/><path fill="#fff" d="M137-138c1-29-70-34-71-4 15 46 118 7 119 86 1 83-164 76-172 9l43-7c4 19 20 25 44 25 33 8 57-30 24-41C81-84 22-81 20-136c-2-80 154-74 161-7" id="ab"/><path fill="#fff" d="M110-194c64 0 96 36 96 99 0 64-35 99-97 99-61 0-95-36-95-99 0-62 34-99 96-99zm-1 164c35 0 45-28 45-65 0-40-10-65-43-65-34 0-45 26-45 65 0 36 10 65 43 65" id="ac"/><path fill="#fff" d="M135-150c-39-12-60 13-60 57V0H25l-1-190h47c2 13-1 29 3 40 6-28 27-53 61-41v41" id="ad"/><g id="h"><use transform="matrix(0.044444444444444446,0,0,0.044444444444444446,0,0)" xlink:href="#Y"/><use transform="matrix(0.044444444444444446,0,0,0.044444444444444446,10.666666666666668,0)" xlink:href="#Z"/><use transform="matrix(0.044444444444444446,0,0,0.044444444444444446,19.555555555555557,0)" xlink:href="#aa"/><use transform="matrix(0.044444444444444446,0,0,0.044444444444444446,29.28888888888889,0)" xlink:href="#ab"/><use transform="matrix(0.044444444444444446,0,0,0.044444444444444446,38.17777777777778,0)" xlink:href="#ac"/><use transform="matrix(0.044444444444444446,0,0,0.044444444444444446,47.91111111111111,0)" xlink:href="#ad"/></g><path fill="#fff" d="M24-248c120-7 223 5 221 122C244-46 201 0 124 0H24v-248zM76-40c74 7 117-18 117-86 0-67-45-88-117-82v168" id="ae"/><path fill="#fff" d="M133-34C117-15 103 5 69 4 32 3 11-16 11-54c-1-60 55-63 116-61 1-26-3-47-28-47-18 1-26 9-28 27l-52-2c7-38 36-58 82-57s74 22 75 68l1 82c-1 14 12 18 25 15v27c-30 8-71 5-69-32zm-48 3c29 0 43-24 42-57-32 0-66-3-65 30 0 17 8 27 23 27" id="af"/><path fill="#fff" d="M115-3C79 11 28 4 28-45v-112H4v-33h27l15-45h31v45h36v33H77v99c-1 23 16 31 38 25v30" id="ag"/><g id="i"><use transform="matrix(0.044444444444444446,0,0,0.044444444444444446,0,0)" xlink:href="#ae"/><use transform="matrix(0.044444444444444446,0,0,0.044444444444444446,11.511111111111111,0)" xlink:href="#af"/><use transform="matrix(0.044444444444444446,0,0,0.044444444444444446,20.4,0)" xlink:href="#ag"/><use transform="matrix(0.044444444444444446,0,0,0.044444444444444446,25.688888888888886,0)" xlink:href="#af"/></g><path fill="#fff" d="M67-125c0 53 21 87 73 88 37 1 54-22 65-47l45 17C233-25 199 4 140 4 58 4 20-42 15-125 8-235 124-281 211-232c18 10 29 29 36 50l-46 12c-8-25-30-41-62-41-52 0-71 34-72 86" id="ah"/><path fill="#fff" d="M190-63c-7 42-38 67-86 67-59 0-84-38-90-98-12-110 154-137 174-36l-49 2c-2-19-15-32-35-32-30 0-35 28-38 64-6 74 65 87 74 30" id="ai"/><path fill="#fff" d="M25-224v-37h50v37H25zM25 0v-190h50V0H25" id="aj"/><path fill="#fff" d="M85 4C-2 5 27-109 22-190h50c7 57-23 150 33 157 60-5 35-97 40-157h50l1 190h-47c-2-12 1-28-3-38-12 25-28 42-61 42" id="ak"/><g id="j"><use transform="matrix(0.044444444444444446,0,0,0.044444444444444446,0,0)" xlink:href="#ah"/><use transform="matrix(0.044444444444444446,0,0,0.044444444444444446,11.511111111111111,0)" xlink:href="#ac"/><use transform="matrix(0.044444444444444446,0,0,0.044444444444444446,21.244444444444447,0)" xlink:href="#aa"/><use transform="matrix(0.044444444444444446,0,0,0.044444444444444446,30.977777777777778,0)" xlink:href="#ab"/><use transform="matrix(0.044444444444444446,0,0,0.044444444444444446,39.866666666666674,0)" xlink:href="#ai"/><use transform="matrix(0.044444444444444446,0,0,0.044444444444444446,48.75555555555556,0)" xlink:href="#aj"/><use transform="matrix(0.044444444444444446,0,0,0.044444444444444446,53.2,0)" xlink:href="#ac"/><use transform="matrix(0.044444444444444446,0,0,0.044444444444444446,62.93333333333334,0)" xlink:href="#ak"/><use transform="matrix(0.044444444444444446,0,0,0.044444444444444446,72.66666666666667,0)" xlink:href="#ab"/></g><g id="k"><use transform="matrix(0.044444444444444446,0,0,0.044444444444444446,0,0)" xlink:href="#V"/><use transform="matrix(0.044444444444444446,0,0,0.044444444444444446,11.511111111111111,0)" xlink:href="#H"/><use transform="matrix(0.044444444444444446,0,0,0.044444444444444446,21.244444444444447,0)" xlink:href="#S"/><use transform="matrix(0.044444444444444446,0,0,0.044444444444444446,27.46666666666667,0)" xlink:href="#O"/><use transform="matrix(0.044444444444444446,0,0,0.044444444444444446,36.355555555555554,0)" xlink:href="#W"/><use transform="matrix(0.044444444444444446,0,0,0.044444444444444446,47.022222222222226,0)" xlink:href="#L"/><use transform="matrix(0.044444444444444446,0,0,0.044444444444444446,55.91111111111111,0)" xlink:href="#S"/><use transform="matrix(0.044444444444444446,0,0,0.044444444444444446,62.13333333333333,0)" xlink:href="#L"/><use transform="matrix(0.044444444444444446,0,0,0.044444444444444446,71.02222222222223,0)" xlink:href="#G"/><use transform="matrix(0.044444444444444446,0,0,0.044444444444444446,85.24444444444445,0)" xlink:href="#Q"/></g><path d="M135-194c52 0 70 43 70 98 0 56-19 99-73 100-30 1-46-15-58-35L72 0H24l1-261h50v104c11-23 29-37 60-37zM114-30c31 0 40-27 40-66 0-37-7-63-39-63s-41 28-41 65c0 36 8 64 40 64" id="al"/><g id="l"><use transform="matrix(0.044444444444444446,0,0,0.044444444444444446,0,0)" xlink:href="#X"/><use transform="matrix(0.044444444444444446,0,0,0.044444444444444446,8.88888888888889,0)" xlink:href="#T"/><use transform="matrix(0.044444444444444446,0,0,0.044444444444444446,18.622222222222224,0)" xlink:href="#L"/><use transform="matrix(0.044444444444444446,0,0,0.044444444444444446,27.511111111111113,0)" xlink:href="#S"/><use transform="matrix(0.044444444444444446,0,0,0.044444444444444446,33.733333333333334,0)" xlink:href="#L"/><use transform="matrix(0.044444444444444446,0,0,0.044444444444444446,42.62222222222222,0)" xlink:href="#G"/><use transform="matrix(0.044444444444444446,0,0,0.044444444444444446,56.844444444444434,0)" xlink:href="#Q"/><use transform="matrix(0.044444444444444446,0,0,0.044444444444444446,65.73333333333333,0)" xlink:href="#X"/><use transform="matrix(0.044444444444444446,0,0,0.044444444444444446,74.62222222222222,0)" xlink:href="#al"/><use transform="matrix(0.044444444444444446,0,0,0.044444444444444446,84.35555555555555,0)" xlink:href="#L"/><use transform="matrix(0.044444444444444446,0,0,0.044444444444444446,93.24444444444445,0)" xlink:href="#Q"/><use transform="matrix(0.044444444444444446,0,0,0.044444444444444446,102.13333333333331,0)" xlink:href="#O"/></g><g id="m"><use transform="matrix(0.044444444444444446,0,0,0.044444444444444446,0,0)" xlink:href="#X"/><use transform="matrix(0.044444444444444446,0,0,0.044444444444444446,8.88888888888889,0)" xlink:href="#T"/><use transform="matrix(0.044444444444444446,0,0,0.044444444444444446,18.622222222222224,0)" xlink:href="#L"/><use transform="matrix(0.044444444444444446,0,0,0.044444444444444446,27.511111111111113,0)" xlink:href="#S"/><use transform="matrix(0.044444444444444446,0,0,0.044444444444444446,33.733333333333334,0)" xlink:href="#L"/><use transform="matrix(0.044444444444444446,0,0,0.044444444444444446,42.62222222222222,0)" xlink:href="#G"/><use transform="matrix(0.044444444444444446,0,0,0.044444444444444446,56.844444444444434,0)" xlink:href="#Q"/><use transform="matrix(0.044444444444444446,0,0,0.044444444444444446,65.73333333333333,0)" xlink:href="#X"/><use transform="matrix(0.044444444444444446,0,0,0.044444444444444446,74.62222222222222,0)" xlink:href="#Q"/><use transform="matrix(0.044444444444444446,0,0,0.044444444444444446,83.5111111111111,0)" xlink:href="#O"/><use transform="matrix(0.044444444444444446,0,0,0.044444444444444446,92.39999999999998,0)" xlink:href="#K"/><use transform="matrix(0.044444444444444446,0,0,0.044444444444444446,102.13333333333331,0)" xlink:href="#Q"/><use transform="matrix(0.044444444444444446,0,0,0.044444444444444446,111.02222222222221,0)" xlink:href="#H"/><use transform="matrix(0.044444444444444446,0,0,0.044444444444444446,120.75555555555555,0)" xlink:href="#S"/><use transform="matrix(0.044444444444444446,0,0,0.044444444444444446,126.97777777777779,0)" xlink:href="#Q"/><use transform="matrix(0.044444444444444446,0,0,0.044444444444444446,135.86666666666667,0)" xlink:href="#U"/><use transform="matrix(0.044444444444444446,0,0,0.044444444444444446,140.31111111111113,0)" xlink:href="#G"/><use transform="matrix(0.044444444444444446,0,0,0.044444444444444446,154.53333333333336,0)" xlink:href="#T"/><use transform="matrix(0.044444444444444446,0,0,0.044444444444444446,164.2666666666667,0)" xlink:href="#L"/><use transform="matrix(0.044444444444444446,0,0,0.044444444444444446,173.1555555555556,0)" xlink:href="#R"/><use transform="matrix(0.044444444444444446,0,0,0.044444444444444446,182.04444444444448,0)" xlink:href="#I"/><use transform="matrix(0.044444444444444446,0,0,0.044444444444444446,187.33333333333337,0)" xlink:href="#Q"/></g><path d="M136-208V0H84v-208H4v-40h212v40h-80" id="am"/><path d="M123 10C108 53 80 86 19 72V37c35 8 53-11 59-39L3-190h52l48 148c12-52 28-100 44-148h51" id="an"/><path d="M24 0v-248h52v208h133V0H24" id="ao"/><g id="n"><use transform="matrix(0.044444444444444446,0,0,0.044444444444444446,0,0)" xlink:href="#am"/><use transform="matrix(0.044444444444444446,0,0,0.044444444444444446,8.533333333333335,0)" xlink:href="#O"/><use transform="matrix(0.044444444444444446,0,0,0.044444444444444446,17.422222222222224,0)" xlink:href="#G"/><use transform="matrix(0.044444444444444446,0,0,0.044444444444444446,31.644444444444446,0)" xlink:href="#T"/><use transform="matrix(0.044444444444444446,0,0,0.044444444444444446,41.37777777777778,0)" xlink:href="#H"/><use transform="matrix(0.044444444444444446,0,0,0.044444444444444446,51.111111111111114,0)" xlink:href="#S"/><use transform="matrix(0.044444444444444446,0,0,0.044444444444444446,57.333333333333336,0)" xlink:href="#L"/><use transform="matrix(0.044444444444444446,0,0,0.044444444444444446,66.22222222222223,0)" xlink:href="#S"/><use transform="matrix(0.044444444444444446,0,0,0.044444444444444446,72.44444444444446,0)" xlink:href="#an"/><use transform="matrix(0.044444444444444446,0,0,0.044444444444444446,81.33333333333334,0)" xlink:href="#V"/><use transform="matrix(0.044444444444444446,0,0,0.044444444444444446,92.84444444444445,0)" xlink:href="#H"/><use transform="matrix(0.044444444444444446,0,0,0.044444444444444446,102.57777777777778,0)" xlink:href="#S"/><use transform="matrix(0.044444444444444446,0,0,0.044444444444444446,108.8,0)" xlink:href="#O"/><use transform="matrix(0.044444444444444446,0,0,0.044444444444444446,117.6888888888889,0)" xlink:href="#U"/><use transform="matrix(0.044444444444444446,0,0,0.044444444444444446,122.13333333333334,0)" xlink:href="#G"/><use transform="matrix(0.044444444444444446,0,0,0.044444444444444446,136.35555555555555,0)" xlink:href="#T"/><use transform="matrix(0.044444444444444446,0,0,0.044444444444444446,146.0888888888889,0)" xlink:href="#L"/><use transform="matrix(0.044444444444444446,0,0,0.044444444444444446,154.9777777777778,0)" xlink:href="#R"/><use transform="matrix(0.044444444444444446,0,0,0.044444444444444446,163.86666666666667,0)" xlink:href="#I"/><use transform="matrix(0.044444444444444446,0,0,0.044444444444444446,169.15555555555557,0)" xlink:href="#Q"/><use transform="matrix(0.044444444444444446,0,0,0.044444444444444446,178.04444444444445,0)" xlink:href="#ao"/><use transform="matrix(0.044444444444444446,0,0,0.044444444444444446,187.77777777777777,0)" xlink:href="#J"/><use transform="matrix(0.044444444444444446,0,0,0.044444444444444446,192.22222222222223,0)" xlink:href="#Q"/><use transform="matrix(0.044444444444444446,0,0,0.044444444444444446,201.11111111111111,0)" xlink:href="#I"/><use transform="matrix(0.044444444444444446,0,0,0.044444444444444446,206.4,0)" xlink:href="#X"/><use transform="matrix(0.044444444444444446,0,0,0.044444444444444446,215.2888888888889,0)" xlink:href="#I"/></g><g id="o"><use transform="matrix(0.044444444444444446,0,0,0.044444444444444446,0,0)" xlink:href="#X"/><use transform="matrix(0.044444444444444446,0,0,0.044444444444444446,8.88888888888889,0)" xlink:href="#T"/><use transform="matrix(0.044444444444444446,0,0,0.044444444444444446,18.622222222222224,0)" xlink:href="#L"/><use transform="matrix(0.044444444444444446,0,0,0.044444444444444446,27.511111111111113,0)" xlink:href="#S"/><use transform="matrix(0.044444444444444446,0,0,0.044444444444444446,33.733333333333334,0)" xlink:href="#L"/><use transform="matrix(0.044444444444444446,0,0,0.044444444444444446,42.62222222222222,0)" xlink:href="#G"/><use transform="matrix(0.044444444444444446,0,0,0.044444444444444446,56.844444444444434,0)" xlink:href="#Q"/><use transform="matrix(0.044444444444444446,0,0,0.044444444444444446,65.73333333333333,0)" xlink:href="#X"/><use transform="matrix(0.044444444444444446,0,0,0.044444444444444446,74.62222222222222,0)" xlink:href="#I"/><use transform="matrix(0.044444444444444446,0,0,0.044444444444444446,79.91111111111111,0)" xlink:href="#O"/><use transform="matrix(0.044444444444444446,0,0,0.044444444444444446,88.8,0)" xlink:href="#G"/><use transform="matrix(0.044444444444444446,0,0,0.044444444444444446,103.02222222222223,0)" xlink:href="#T"/><use transform="matrix(0.044444444444444446,0,0,0.044444444444444446,112.75555555555556,0)" xlink:href="#U"/><use transform="matrix(0.044444444444444446,0,0,0.044444444444444446,117.2,0)" xlink:href="#G"/><use transform="matrix(0.044444444444444446,0,0,0.044444444444444446,131.42222222222222,0)" xlink:href="#T"/><use transform="matrix(0.044444444444444446,0,0,0.044444444444444446,141.15555555555557,0)" xlink:href="#L"/><use transform="matrix(0.044444444444444446,0,0,0.044444444444444446,150.04444444444445,0)" xlink:href="#R"/><use transform="matrix(0.044444444444444446,0,0,0.044444444444444446,158.93333333333334,0)" xlink:href="#I"/><use transform="matrix(0.044444444444444446,0,0,0.044444444444444446,164.22222222222223,0)" xlink:href="#Q"/></g><g id="p"><use transform="matrix(0.044444444444444446,0,0,0.044444444444444446,0,0)" xlink:href="#R"/><use transform="matrix(0.044444444444444446,0,0,0.044444444444444446,8.88888888888889,0)" xlink:href="#H"/><use transform="matrix(0.044444444444444446,0,0,0.044444444444444446,18.622222222222224,0)" xlink:href="#K"/><use transform="matrix(0.044444444444444446,0,0,0.044444444444444446,28.355555555555558,0)" xlink:href="#Q"/><use transform="matrix(0.044444444444444446,0,0,0.044444444444444446,37.24444444444445,0)" xlink:href="#I"/></g><path d="M85 4C-2 5 27-109 22-190h50c7 57-23 150 33 157 60-5 35-97 40-157h50l1 190h-47c-2-12 1-28-3-38-12 25-28 42-61 42" id="ap"/><g id="q"><use transform="matrix(0.044444444444444446,0,0,0.044444444444444446,0,0)" xlink:href="#F"/><use transform="matrix(0.044444444444444446,0,0,0.044444444444444446,10.666666666666668,0)" xlink:href="#G"/><use transform="matrix(0.044444444444444446,0,0,0.044444444444444446,24.888888888888896,0)" xlink:href="#H"/><use transform="matrix(0.044444444444444446,0,0,0.044444444444444446,34.62222222222223,0)" xlink:href="#I"/><use transform="matrix(0.044444444444444446,0,0,0.044444444444444446,39.91111111111112,0)" xlink:href="#J"/><use transform="matrix(0.044444444444444446,0,0,0.044444444444444446,44.35555555555556,0)" xlink:href="#H"/><use transform="matrix(0.044444444444444446,0,0,0.044444444444444446,54.08888888888889,0)" xlink:href="#K"/><use transform="matrix(0.044444444444444446,0,0,0.044444444444444446,63.82222222222224,0)" xlink:href="#L"/><use transform="matrix(0.044444444444444446,0,0,0.044444444444444446,72.71111111111112,0)" xlink:href="#M"/><use transform="matrix(0.044444444444444446,0,0,0.044444444444444446,77.15555555555557,0)" xlink:href="#N"/><use transform="matrix(0.044444444444444446,0,0,0.044444444444444446,87.82222222222224,0)" xlink:href="#I"/><use transform="matrix(0.044444444444444446,0,0,0.044444444444444446,93.11111111111113,0)" xlink:href="#L"/><use transform="matrix(0.044444444444444446,0,0,0.044444444444444446,102.00000000000003,0)" xlink:href="#I"/><use transform="matrix(0.044444444444444446,0,0,0.044444444444444446,107.28888888888892,0)" xlink:href="#O"/><use transform="matrix(0.044444444444444446,0,0,0.044444444444444446,116.17777777777778,0)" xlink:href="#P"/><use transform="matrix(0.044444444444444446,0,0,0.044444444444444446,127.6888888888889,0)" xlink:href="#O"/><use transform="matrix(0.044444444444444446,0,0,0.044444444444444446,136.57777777777778,0)" xlink:href="#Q"/><use transform="matrix(0.044444444444444446,0,0,0.044444444444444446,145.46666666666667,0)" xlink:href="#R"/><use transform="matrix(0.044444444444444446,0,0,0.044444444444444446,154.35555555555555,0)" xlink:href="#S"/><use transform="matrix(0.044444444444444446,0,0,0.044444444444444446,160.57777777777778,0)" xlink:href="#J"/><use transform="matrix(0.044444444444444446,0,0,0.044444444444444446,165.02222222222224,0)" xlink:href="#T"/><use transform="matrix(0.044444444444444446,0,0,0.044444444444444446,174.7555555555556,0)" xlink:href="#I"/><use transform="matrix(0.044444444444444446,0,0,0.044444444444444446,180.04444444444448,0)" xlink:href="#H"/><use transform="matrix(0.044444444444444446,0,0,0.044444444444444446,189.77777777777783,0)" xlink:href="#S"/><use transform="matrix(0.044444444444444446,0,0,0.044444444444444446,196.00000000000006,0)" xlink:href="#N"/><use transform="matrix(0.044444444444444446,0,0,0.044444444444444446,206.6666666666667,0)" xlink:href="#I"/><use transform="matrix(0.044444444444444446,0,0,0.044444444444444446,211.9555555555556,0)" xlink:href="#S"/><use transform="matrix(0.044444444444444446,0,0,0.044444444444444446,218.17777777777783,0)" xlink:href="#ap"/><use transform="matrix(0.044444444444444446,0,0,0.044444444444444446,227.91111111111115,0)" xlink:href="#R"/><use transform="matrix(0.044444444444444446,0,0,0.044444444444444446,236.80000000000004,0)" xlink:href="#I"/><use transform="matrix(0.044444444444444446,0,0,0.044444444444444446,242.08888888888893,0)" xlink:href="#X"/><use transform="matrix(0.044444444444444446,0,0,0.044444444444444446,250.97777777777782,0)" xlink:href="#I"/></g><path d="M86-200l42-18 12 35-44 11 32 37-32 21-26-44-26 44-32-21 33-37-44-11 12-35 42 18-3-48h38" id="aq"/><g id="r"><use transform="matrix(0.044444444444444446,0,0,0.044444444444444446,0,0)" xlink:href="#aq"/><use transform="matrix(0.044444444444444446,0,0,0.044444444444444446,6.222222222222222,0)" xlink:href="#X"/><use transform="matrix(0.044444444444444446,0,0,0.044444444444444446,15.111111111111112,0)" xlink:href="#O"/><use transform="matrix(0.044444444444444446,0,0,0.044444444444444446,24,0)" xlink:href="#G"/><use transform="matrix(0.044444444444444446,0,0,0.044444444444444446,38.22222222222222,0)" xlink:href="#H"/><use transform="matrix(0.044444444444444446,0,0,0.044444444444444446,47.955555555555556,0)" xlink:href="#I"/><use transform="matrix(0.044444444444444446,0,0,0.044444444444444446,53.24444444444445,0)" xlink:href="#J"/><use transform="matrix(0.044444444444444446,0,0,0.044444444444444446,57.68888888888889,0)" xlink:href="#H"/><use transform="matrix(0.044444444444444446,0,0,0.044444444444444446,67.42222222222222,0)" xlink:href="#K"/><use transform="matrix(0.044444444444444446,0,0,0.044444444444444446,77.15555555555555,0)" xlink:href="#L"/><use transform="matrix(0.044444444444444446,0,0,0.044444444444444446,86.04444444444444,0)" xlink:href="#M"/><use transform="matrix(0.044444444444444446,0,0,0.044444444444444446,90.48888888888888,0)" xlink:href="#N"/><use transform="matrix(0.044444444444444446,0,0,0.044444444444444446,101.15555555555557,0)" xlink:href="#I"/><use transform="matrix(0.044444444444444446,0,0,0.044444444444444446,106.44444444444444,0)" xlink:href="#L"/><use transform="matrix(0.044444444444444446,0,0,0.044444444444444446,115.33333333333334,0)" xlink:href="#I"/><use transform="matrix(0.044444444444444446,0,0,0.044444444444444446,120.62222222222222,0)" xlink:href="#O"/><use transform="matrix(0.044444444444444446,0,0,0.044444444444444446,129.51111111111112,0)" xlink:href="#X"/><use transform="matrix(0.044444444444444446,0,0,0.044444444444444446,138.4,0)" xlink:href="#T"/></g><path d="M88-194c31-1 46 15 58 34l-1-101h50l1 261h-48c-2-10 0-23-3-31C134-8 116 4 84 4 32 4 16-41 15-95c0-56 19-97 73-99zm17 164c33 0 40-30 41-66 1-37-9-64-41-64s-38 30-39 65c0 43 13 65 39 65" id="ar"/><path d="M35-132v-50h50v50H35zM35 0v-49h50V0H35" id="as"/><path d="M15-91v-56l181-69v40L49-119l147 57v40" id="at"/><path d="M195-6C206 82 75 100 31 46c-4-6-6-13-8-21l49-6c3 16 16 24 34 25 40 0 42-37 40-79-11 22-30 35-61 35-53 0-70-43-70-97 0-56 18-96 73-97 30 0 46 14 59 34l2-30h47zm-90-29c32 0 41-27 41-63 0-35-9-62-40-62-32 0-39 29-40 63 0 36 9 62 39 62" id="au"/><path d="M76-54c-1 42 2 86-19 110H24C36 42 46 24 48 0H25v-54h51" id="av"/><g id="s"><use transform="matrix(0.044444444444444446,0,0,0.044444444444444446,0,0)" xlink:href="#Q"/><use transform="matrix(0.044444444444444446,0,0,0.044444444444444446,8.88888888888889,0)" xlink:href="#I"/><use transform="matrix(0.044444444444444446,0,0,0.044444444444444446,14.177777777777779,0)" xlink:href="#ar"/><use transform="matrix(0.044444444444444446,0,0,0.044444444444444446,23.91111111111111,0)" xlink:href="#as"/><use transform="matrix(0.044444444444444446,0,0,0.044444444444444446,29.200000000000003,0)" xlink:href="#as"/><use transform="matrix(0.044444444444444446,0,0,0.044444444444444446,34.48888888888889,0)" xlink:href="#G"/><use transform="matrix(0.044444444444444446,0,0,0.044444444444444446,48.711111111111116,0)" xlink:href="#L"/><use transform="matrix(0.044444444444444446,0,0,0.044444444444444446,57.599999999999994,0)" xlink:href="#T"/><use transform="matrix(0.044444444444444446,0,0,0.044444444444444446,67.33333333333333,0)" xlink:href="#at"/><use transform="matrix(0.044444444444444446,0,0,0.044444444444444446,76.66666666666666,0)" xlink:href="#Q"/><use transform="matrix(0.044444444444444446,0,0,0.044444444444444446,85.55555555555554,0)" xlink:href="#I"/><use transform="matrix(0.044444444444444446,0,0,0.044444444444444446,90.84444444444443,0)" xlink:href="#ar"/><use transform="matrix(0.044444444444444446,0,0,0.044444444444444446,100.57777777777775,0)" xlink:href="#as"/><use transform="matrix(0.044444444444444446,0,0,0.044444444444444446,105.86666666666665,0)" xlink:href="#as"/><use transform="matrix(0.044444444444444446,0,0,0.044444444444444446,111.15555555555557,0)" xlink:href="#Q"/><use transform="matrix(0.044444444444444446,0,0,0.044444444444444446,120.04444444444442,0)" xlink:href="#I"/><use transform="matrix(0.044444444444444446,0,0,0.044444444444444446,125.33333333333334,0)" xlink:href="#S"/><use transform="matrix(0.044444444444444446,0,0,0.044444444444444446,131.55555555555554,0)" xlink:href="#J"/><use transform="matrix(0.044444444444444446,0,0,0.044444444444444446,136,0)" xlink:href="#K"/><use transform="matrix(0.044444444444444446,0,0,0.044444444444444446,145.73333333333335,0)" xlink:href="#au"/><use transform="matrix(0.044444444444444446,0,0,0.044444444444444446,155.4666666666667,0)" xlink:href="#av"/></g><path d="M121-226c-27-7-43 5-38 36h38v33H83V0H34v-157H6v-33h28c-9-59 32-81 87-68v32" id="aw"/><path d="M15-22v-40l146-57-146-57v-40l181 69v56" id="ax"/><g id="t"><use transform="matrix(0.044444444444444446,0,0,0.044444444444444446,0,0)" xlink:href="#aw"/><use transform="matrix(0.044444444444444446,0,0,0.044444444444444446,5.288888888888889,0)" xlink:href="#M"/><use transform="matrix(0.044444444444444446,0,0,0.044444444444444446,9.733333333333334,0)" xlink:href="#H"/><use transform="matrix(0.044444444444444446,0,0,0.044444444444444446,19.46666666666667,0)" xlink:href="#L"/><use transform="matrix(0.044444444444444446,0,0,0.044444444444444446,28.355555555555558,0)" xlink:href="#I"/><use transform="matrix(0.044444444444444446,0,0,0.044444444444444446,33.644444444444446,0)" xlink:href="#ax"/></g><path d="M147 0H94L2-248h55l64 206c17-72 42-137 63-206h54" id="ay"/><g id="u"><use transform="matrix(0.044444444444444446,0,0,0.044444444444444446,0,0)" xlink:href="#X"/><use transform="matrix(0.044444444444444446,0,0,0.044444444444444446,8.88888888888889,0)" xlink:href="#Q"/><use transform="matrix(0.044444444444444446,0,0,0.044444444444444446,17.77777777777778,0)" xlink:href="#O"/><use transform="matrix(0.044444444444444446,0,0,0.044444444444444446,26.666666666666668,0)" xlink:href="#K"/><use transform="matrix(0.044444444444444446,0,0,0.044444444444444446,36.400000000000006,0)" xlink:href="#Q"/><use transform="matrix(0.044444444444444446,0,0,0.044444444444444446,45.28888888888889,0)" xlink:href="#H"/><use transform="matrix(0.044444444444444446,0,0,0.044444444444444446,55.022222222222226,0)" xlink:href="#S"/><use transform="matrix(0.044444444444444446,0,0,0.044444444444444446,61.24444444444445,0)" xlink:href="#ay"/><use transform="matrix(0.044444444444444446,0,0,0.044444444444444446,71.02222222222223,0)" xlink:href="#L"/><use transform="matrix(0.044444444444444446,0,0,0.044444444444444446,79.91111111111111,0)" xlink:href="#M"/><use transform="matrix(0.044444444444444446,0,0,0.044444444444444446,84.35555555555555,0)" xlink:href="#ap"/><use transform="matrix(0.044444444444444446,0,0,0.044444444444444446,94.08888888888889,0)" xlink:href="#O"/><use transform="matrix(0.044444444444444446,0,0,0.044444444444444446,102.97777777777779,0)" xlink:href="#Q"/></g><path fill="#fff" d="M199 0l-22-63H83L61 0H9l90-248h61L250 0h-51zm-33-102l-36-108c-10 38-24 72-36 108h72" id="az"/><path fill="#fff" d="M135-194c53 0 70 44 70 98 0 56-19 98-73 100-31 1-45-17-59-34 3 33 2 69 2 105H25l-1-265h48c2 10 0 23 3 31 11-24 29-35 60-35zM114-30c33 0 39-31 40-66 0-38-9-64-40-64-56 0-55 130 0 130" id="aA"/><path fill="#fff" d="M25 0v-261h50V0H25" id="aB"/><g id="v"><use transform="matrix(0.044444444444444446,0,0,0.044444444444444446,0,0)" xlink:href="#az"/><use transform="matrix(0.044444444444444446,0,0,0.044444444444444446,11.511111111111111,0)" xlink:href="#aA"/><use transform="matrix(0.044444444444444446,0,0,0.044444444444444446,21.244444444444447,0)" xlink:href="#aA"/><use transform="matrix(0.044444444444444446,0,0,0.044444444444444446,30.977777777777778,0)" xlink:href="#aB"/><use transform="matrix(0.044444444444444446,0,0,0.044444444444444446,35.422222222222224,0)" xlink:href="#aj"/><use transform="matrix(0.044444444444444446,0,0,0.044444444444444446,39.86666666666667,0)" xlink:href="#ai"/><use transform="matrix(0.044444444444444446,0,0,0.044444444444444446,48.75555555555556,0)" xlink:href="#af"/><use transform="matrix(0.044444444444444446,0,0,0.044444444444444446,57.644444444444446,0)" xlink:href="#ag"/><use transform="matrix(0.044444444444444446,0,0,0.044444444444444446,62.93333333333334,0)" xlink:href="#aj"/><use transform="matrix(0.044444444444444446,0,0,0.044444444444444446,67.37777777777778,0)" xlink:href="#ac"/><use transform="matrix(0.044444444444444446,0,0,0.044444444444444446,77.11111111111111,0)" xlink:href="#aa"/></g></defs></g></svg>